<svg xmlns="http://www.w3.org/2000/svg" xmlns:xlink="http://www.w3.org/1999/xlink" width="500" zoomAndPan="magnify" viewBox="0 0 375 374.999991" height="500" preserveAspectRatio="xMidYMid meet" version="1.0"><defs><clipPath id="c279d71e44"><path d="M 25.078125 0 L 349.828125 0 L 349.828125 375 L 25.078125 375 Z M 25.078125 0 " clip-rule="nonzero"/></clipPath></defs><g clip-path="url(#c279d71e44)"><path fill="#ddec00" d="M 25.128906 93.742188 L 106.316406 46.867188 L 187.496094 -0.00390625 L 268.679688 46.867188 L 349.859375 93.742188 L 349.859375 281.21875 L 268.679688 328.101562 L 187.496094 374.964844 L 106.316406 328.101562 L 25.128906 281.21875 L 25.128906 187.488281 M 318.507812 263.125 L 253.003906 300.949219 L 187.503906 338.757812 L 143.765625 313.507812 L 274.660156 237.941406 L 274.46875 201.300781 L 242.882812 219.542969 L 237.894531 222.414062 L 132.824219 283.070312 L 132.566406 237.574219 L 242.632812 174.027344 L 242.613281 174.027344 L 274.203125 155.789062 L 273.820312 86.050781 L 318.515625 111.84375 L 318.507812 187.476562 Z M 101.164062 288.90625 L 56.484375 263.125 L 56.492188 187.484375 L 56.484375 111.84375 L 121.984375 74.027344 L 187.496094 36.203125 L 231.222656 61.453125 L 100.335938 137.027344 L 100.527344 173.660156 C 145.941406 147.441406 192.414062 120.617188 242.164062 91.890625 L 242.414062 137.402344 L 150.613281 190.40625 L 132.367188 200.933594 L 100.785156 219.175781 Z M 101.164062 288.90625 " fill-opacity="1" fill-rule="evenodd"/></g></svg>
