<svg xmlns="http://www.w3.org/2000/svg" xmlns:xlink="http://www.w3.org/1999/xlink" width="500" zoomAndPan="magnify" viewBox="0 0 375 374.999991" height="500" preserveAspectRatio="xMidYMid meet" version="1.0"><defs><g/><clipPath id="1d0efa432f"><path d="M 41.734375 0.957031 L 333.484375 0.957031 L 333.484375 337.707031 L 41.734375 337.707031 Z M 41.734375 0.957031 " clip-rule="nonzero"/></clipPath><clipPath id="2fb64510a6"><rect x="0" width="290" y="0" height="43"/></clipPath></defs><g clip-path="url(#1d0efa432f)"><path fill="#ddec00" d="M 41.78125 85.082031 L 114.640625 43.019531 L 187.492188 0.953125 L 260.355469 43.019531 L 333.207031 85.082031 L 333.207031 253.332031 L 260.355469 295.40625 L 187.492188 337.464844 L 114.640625 295.40625 L 41.78125 253.332031 L 41.78125 169.214844 M 305.066406 237.09375 L 246.285156 271.039062 L 187.5 304.96875 L 148.25 282.308594 L 265.71875 214.492188 L 265.546875 181.609375 L 237.199219 197.984375 L 232.722656 200.558594 L 138.429688 254.996094 L 138.199219 214.164062 L 236.976562 157.132812 L 236.960938 157.132812 L 265.308594 140.769531 L 264.964844 78.183594 L 305.078125 101.328125 L 305.066406 169.207031 Z M 110.015625 260.230469 L 69.917969 237.09375 L 69.925781 169.214844 L 69.917969 101.328125 L 128.703125 67.390625 L 187.492188 33.445312 L 226.738281 56.105469 L 109.273438 123.929688 L 109.445312 156.804688 C 150.203125 133.277344 191.90625 109.203125 236.554688 83.421875 L 236.78125 124.265625 L 154.394531 171.832031 L 138.019531 181.28125 L 109.679688 197.65625 Z M 110.015625 260.230469 " fill-opacity="1" fill-rule="evenodd"/></g><g transform="matrix(1, 0, 0, 1, 50, 332)"><g clip-path="url(#2fb64510a6)"><g fill="#ffffff" fill-opacity="1"><g transform="translate(0.447884, 37.367922)"><g><path d="M 3.640625 0 L 3.640625 -25 L 17.96875 -25 L 17.96875 -22.078125 L 6.78125 -22.078125 L 6.78125 -13.4375 L 17.03125 -13.4375 L 17.03125 -10.53125 L 6.78125 -10.53125 L 6.78125 0 Z M 3.640625 0 "/></g></g></g><g fill="#ffffff" fill-opacity="1"><g transform="translate(34.087189, 37.367922)"><g><path d="M 3.640625 0 L 3.640625 -25 L 6.78125 -25 L 6.78125 0 Z M 3.640625 0 "/></g></g></g><g fill="#ffffff" fill-opacity="1"><g transform="translate(58.228648, 37.367922)"><g><path d="M 9.6875 0 L 9.6875 -22 L 1.21875 -22 L 1.21875 -25 L 21.25 -25 L 21.25 -22 L 12.828125 -22 L 12.828125 0 Z M 9.6875 0 "/></g></g></g><g fill="#ffffff" fill-opacity="1"><g transform="translate(94.438793, 37.367922)"><g><path d="M 3.640625 0 L 3.640625 -25 L 17.96875 -25 L 17.96875 -22.078125 L 6.78125 -22.078125 L 6.78125 -13.4375 L 17.03125 -13.4375 L 17.03125 -10.53125 L 6.78125 -10.53125 L 6.78125 0 Z M 3.640625 0 "/></g></g></g><g fill="#ffffff" fill-opacity="1"><g transform="translate(128.078098, 37.367922)"><g><path d="M 15 0.46875 C 12.476562 0.46875 10.238281 -0.0820312 8.28125 -1.1875 C 6.332031 -2.300781 4.8125 -3.832031 3.71875 -5.78125 C 2.625 -7.738281 2.078125 -9.976562 2.078125 -12.5 C 2.078125 -15.050781 2.625 -17.296875 3.71875 -19.234375 C 4.8125 -21.171875 6.332031 -22.691406 8.28125 -23.796875 C 10.238281 -24.910156 12.476562 -25.46875 15 -25.46875 C 17.550781 -25.46875 19.796875 -24.910156 21.734375 -23.796875 C 23.671875 -22.691406 25.191406 -21.171875 26.296875 -19.234375 C 27.410156 -17.296875 27.96875 -15.050781 27.96875 -12.5 C 27.96875 -9.976562 27.410156 -7.738281 26.296875 -5.78125 C 25.191406 -3.832031 23.671875 -2.300781 21.734375 -1.1875 C 19.796875 -0.0820312 17.550781 0.46875 15 0.46875 Z M 5.28125 -12.5 C 5.28125 -10.570312 5.691406 -8.867188 6.515625 -7.390625 C 7.335938 -5.910156 8.476562 -4.753906 9.9375 -3.921875 C 11.40625 -3.085938 13.09375 -2.671875 15 -2.671875 C 16.925781 -2.671875 18.613281 -3.085938 20.0625 -3.921875 C 21.519531 -4.753906 22.660156 -5.910156 23.484375 -7.390625 C 24.304688 -8.867188 24.71875 -10.570312 24.71875 -12.5 C 24.71875 -14.457031 24.304688 -16.164062 23.484375 -17.625 C 22.660156 -19.09375 21.519531 -20.242188 20.0625 -21.078125 C 18.613281 -21.910156 16.925781 -22.328125 15 -22.328125 C 13.09375 -22.328125 11.40625 -21.910156 9.9375 -21.078125 C 8.476562 -20.242188 7.335938 -19.09375 6.515625 -17.625 C 5.691406 -16.164062 5.28125 -14.457031 5.28125 -12.5 Z M 5.28125 -12.5 "/></g></g></g><g fill="#ffffff" fill-opacity="1"><g transform="translate(171.786539, 37.367922)"><g><path d="M 3.640625 0 L 3.640625 -25 L 13.1875 -25 C 14.914062 -25 16.421875 -24.671875 17.703125 -24.015625 C 18.992188 -23.359375 19.992188 -22.4375 20.703125 -21.25 C 21.421875 -20.0625 21.78125 -18.632812 21.78125 -16.96875 C 21.78125 -14.945312 21.253906 -13.273438 20.203125 -11.953125 C 19.160156 -10.628906 17.722656 -9.738281 15.890625 -9.28125 L 22.1875 0 L 18.390625 0 L 12.28125 -8.96875 L 6.78125 -8.96875 L 6.78125 0 Z M 6.78125 -11.96875 L 12.828125 -11.96875 C 14.660156 -11.96875 16.078125 -12.398438 17.078125 -13.265625 C 18.078125 -14.140625 18.578125 -15.375 18.578125 -16.96875 C 18.578125 -18.5625 18.078125 -19.796875 17.078125 -20.671875 C 16.078125 -21.554688 14.660156 -22 12.828125 -22 L 6.78125 -22 Z M 6.78125 -11.96875 "/></g></g></g><g fill="#ffffff" fill-opacity="1"><g transform="translate(209.817703, 37.367922)"><g><path d="M 14.78125 0.46875 C 12.945312 0.46875 11.253906 0.144531 9.703125 -0.5 C 8.160156 -1.144531 6.816406 -2.039062 5.671875 -3.1875 C 4.535156 -4.34375 3.648438 -5.710938 3.015625 -7.296875 C 2.390625 -8.890625 2.078125 -10.625 2.078125 -12.5 C 2.078125 -14.382812 2.382812 -16.109375 3 -17.671875 C 3.613281 -19.242188 4.492188 -20.613281 5.640625 -21.78125 C 6.785156 -22.945312 8.125 -23.851562 9.65625 -24.5 C 11.195312 -25.144531 12.882812 -25.46875 14.71875 -25.46875 C 16.625 -25.46875 18.382812 -25.117188 20 -24.421875 C 21.625 -23.734375 23.023438 -22.769531 24.203125 -21.53125 C 25.378906 -20.300781 26.226562 -18.863281 26.75 -17.21875 L 23.328125 -17.21875 C 22.535156 -18.832031 21.398438 -20.085938 19.921875 -20.984375 C 18.453125 -21.878906 16.753906 -22.328125 14.828125 -22.328125 C 12.960938 -22.328125 11.3125 -21.910156 9.875 -21.078125 C 8.4375 -20.242188 7.3125 -19.085938 6.5 -17.609375 C 5.6875 -16.128906 5.28125 -14.425781 5.28125 -12.5 C 5.28125 -10.570312 5.691406 -8.867188 6.515625 -7.390625 C 7.335938 -5.910156 8.46875 -4.753906 9.90625 -3.921875 C 11.351562 -3.085938 13.003906 -2.671875 14.859375 -2.671875 C 16.546875 -2.671875 18.046875 -3.003906 19.359375 -3.671875 C 20.671875 -4.335938 21.734375 -5.257812 22.546875 -6.4375 C 23.367188 -7.625 23.890625 -9.003906 24.109375 -10.578125 L 13.9375 -10.578125 L 13.9375 -13.578125 L 27.5 -13.578125 C 27.550781 -10.835938 27.046875 -8.410156 25.984375 -6.296875 C 24.921875 -4.191406 23.429688 -2.535156 21.515625 -1.328125 C 19.597656 -0.128906 17.351562 0.46875 14.78125 0.46875 Z M 14.78125 0.46875 "/></g></g></g><g fill="#ffffff" fill-opacity="1"><g transform="translate(252.990565, 37.367922)"><g><path d="M 3.640625 0 L 3.640625 -25 L 18.828125 -25 L 18.828125 -22.078125 L 6.78125 -22.078125 L 6.78125 -14.1875 L 17.9375 -14.1875 L 17.9375 -11.28125 L 6.78125 -11.28125 L 6.78125 -2.921875 L 19.21875 -2.921875 L 19.21875 0 Z M 3.640625 0 "/></g></g></g></g></g></svg>