<svg xmlns="http://www.w3.org/2000/svg" xmlns:xlink="http://www.w3.org/1999/xlink" width="500" zoomAndPan="magnify" viewBox="0 0 375 374.999991" height="500" preserveAspectRatio="xMidYMid meet" version="1.0"><defs><g/><clipPath id="d079f943a9"><path d="M 141.9375 101.101562 L 232.6875 101.101562 L 232.6875 206.101562 L 141.9375 206.101562 Z M 141.9375 101.101562 " clip-rule="nonzero"/></clipPath><clipPath id="8820239ece"><rect x="0" width="133" y="0" height="24"/></clipPath></defs><g clip-path="url(#d079f943a9)"><path fill="#ddec00" d="M 141.949219 127.398438 L 164.722656 114.25 L 187.492188 101.101562 L 233.039062 127.398438 L 233.039062 179.984375 L 210.265625 193.136719 L 187.492188 206.28125 L 164.722656 193.136719 L 141.949219 179.984375 L 141.949219 153.691406 M 224.242188 174.910156 L 205.871094 185.519531 L 187.496094 196.125 L 175.226562 189.042969 L 211.945312 167.84375 L 211.890625 157.566406 L 203.03125 162.683594 L 201.632812 163.488281 L 172.160156 180.503906 L 172.085938 167.742188 L 202.960938 149.917969 L 202.953125 149.917969 L 211.816406 144.800781 L 211.707031 125.242188 L 224.246094 132.476562 L 224.242188 153.691406 Z M 163.277344 182.140625 L 150.746094 174.910156 L 150.746094 132.476562 L 169.117188 121.867188 L 187.492188 111.257812 L 199.761719 118.339844 L 163.046875 139.539062 L 163.101562 149.816406 C 175.839844 142.460938 188.875 134.9375 202.828125 126.878906 L 202.898438 139.644531 L 177.148438 154.511719 L 172.03125 157.464844 L 163.171875 162.582031 Z M 163.277344 182.140625 " fill-opacity="1" fill-rule="evenodd"/></g><g transform="matrix(1, 0, 0, 1, 124, 204)"><g clip-path="url(#8820239ece)"><g fill="#152039" fill-opacity="1"><g transform="translate(0.799392, 16.874251)"><g><path d="M 1.671875 0 L 1.671875 -11.4375 L 8.21875 -11.4375 L 8.21875 -10.09375 L 3.109375 -10.09375 L 3.109375 -6.140625 L 7.796875 -6.140625 L 7.796875 -4.828125 L 3.109375 -4.828125 L 3.109375 0 Z M 1.671875 0 "/></g></g></g><g fill="#152039" fill-opacity="1"><g transform="translate(16.188926, 16.874251)"><g><path d="M 1.671875 0 L 1.671875 -11.4375 L 3.109375 -11.4375 L 3.109375 0 Z M 1.671875 0 "/></g></g></g><g fill="#152039" fill-opacity="1"><g transform="translate(27.233321, 16.874251)"><g><path d="M 4.421875 0 L 4.421875 -10.0625 L 0.5625 -10.0625 L 0.5625 -11.4375 L 9.71875 -11.4375 L 9.71875 -10.0625 L 5.875 -10.0625 L 5.875 0 Z M 4.421875 0 "/></g></g></g><g fill="#152039" fill-opacity="1"><g transform="translate(43.79898, 16.874251)"><g><path d="M 1.671875 0 L 1.671875 -11.4375 L 8.21875 -11.4375 L 8.21875 -10.09375 L 3.109375 -10.09375 L 3.109375 -6.140625 L 7.796875 -6.140625 L 7.796875 -4.828125 L 3.109375 -4.828125 L 3.109375 0 Z M 1.671875 0 "/></g></g></g><g fill="#152039" fill-opacity="1"><g transform="translate(59.188514, 16.874251)"><g><path d="M 6.859375 0.21875 C 5.703125 0.21875 4.675781 -0.0351562 3.78125 -0.546875 C 2.894531 -1.054688 2.203125 -1.753906 1.703125 -2.640625 C 1.203125 -3.535156 0.953125 -4.5625 0.953125 -5.71875 C 0.953125 -6.882812 1.203125 -7.910156 1.703125 -8.796875 C 2.203125 -9.691406 2.894531 -10.390625 3.78125 -10.890625 C 4.675781 -11.398438 5.703125 -11.65625 6.859375 -11.65625 C 8.023438 -11.65625 9.050781 -11.398438 9.9375 -10.890625 C 10.832031 -10.390625 11.53125 -9.691406 12.03125 -8.796875 C 12.539062 -7.910156 12.796875 -6.882812 12.796875 -5.71875 C 12.796875 -4.5625 12.539062 -3.535156 12.03125 -2.640625 C 11.53125 -1.753906 10.832031 -1.054688 9.9375 -0.546875 C 9.050781 -0.0351562 8.023438 0.21875 6.859375 0.21875 Z M 2.421875 -5.71875 C 2.421875 -4.832031 2.609375 -4.050781 2.984375 -3.375 C 3.359375 -2.707031 3.878906 -2.179688 4.546875 -1.796875 C 5.222656 -1.410156 5.992188 -1.21875 6.859375 -1.21875 C 7.742188 -1.21875 8.519531 -1.410156 9.1875 -1.796875 C 9.851562 -2.179688 10.375 -2.707031 10.75 -3.375 C 11.125 -4.050781 11.3125 -4.832031 11.3125 -5.71875 C 11.3125 -6.613281 11.125 -7.394531 10.75 -8.0625 C 10.375 -8.738281 9.851562 -9.265625 9.1875 -9.640625 C 8.519531 -10.023438 7.742188 -10.21875 6.859375 -10.21875 C 5.992188 -10.21875 5.222656 -10.023438 4.546875 -9.640625 C 3.878906 -9.265625 3.359375 -8.738281 2.984375 -8.0625 C 2.609375 -7.394531 2.421875 -6.613281 2.421875 -5.71875 Z M 2.421875 -5.71875 "/></g></g></g><g fill="#152039" fill-opacity="1"><g transform="translate(79.184544, 16.874251)"><g><path d="M 1.671875 0 L 1.671875 -11.4375 L 6.03125 -11.4375 C 6.820312 -11.4375 7.507812 -11.285156 8.09375 -10.984375 C 8.6875 -10.691406 9.144531 -10.269531 9.46875 -9.71875 C 9.800781 -9.175781 9.96875 -8.523438 9.96875 -7.765625 C 9.96875 -6.835938 9.726562 -6.070312 9.25 -5.46875 C 8.769531 -4.863281 8.109375 -4.457031 7.265625 -4.25 L 10.15625 0 L 8.421875 0 L 5.625 -4.109375 L 3.109375 -4.109375 L 3.109375 0 Z M 3.109375 -5.46875 L 5.875 -5.46875 C 6.707031 -5.46875 7.351562 -5.664062 7.8125 -6.0625 C 8.269531 -6.46875 8.5 -7.035156 8.5 -7.765625 C 8.5 -8.492188 8.269531 -9.054688 7.8125 -9.453125 C 7.351562 -9.859375 6.707031 -10.0625 5.875 -10.0625 L 3.109375 -10.0625 Z M 3.109375 -5.46875 "/></g></g></g><g fill="#152039" fill-opacity="1"><g transform="translate(96.583295, 16.874251)"><g><path d="M 6.765625 0.21875 C 5.929688 0.21875 5.160156 0.0703125 4.453125 -0.21875 C 3.742188 -0.519531 3.125 -0.929688 2.59375 -1.453125 C 2.070312 -1.984375 1.664062 -2.609375 1.375 -3.328125 C 1.09375 -4.054688 0.953125 -4.851562 0.953125 -5.71875 C 0.953125 -6.582031 1.09375 -7.375 1.375 -8.09375 C 1.65625 -8.8125 2.054688 -9.4375 2.578125 -9.96875 C 3.097656 -10.5 3.707031 -10.910156 4.40625 -11.203125 C 5.113281 -11.503906 5.890625 -11.65625 6.734375 -11.65625 C 7.609375 -11.65625 8.414062 -11.492188 9.15625 -11.171875 C 9.894531 -10.859375 10.53125 -10.414062 11.0625 -9.84375 C 11.601562 -9.28125 11.992188 -8.625 12.234375 -7.875 L 10.671875 -7.875 C 10.316406 -8.613281 9.800781 -9.1875 9.125 -9.59375 C 8.445312 -10.007812 7.664062 -10.21875 6.78125 -10.21875 C 5.9375 -10.21875 5.179688 -10.023438 4.515625 -9.640625 C 3.859375 -9.265625 3.34375 -8.738281 2.96875 -8.0625 C 2.601562 -7.382812 2.421875 -6.601562 2.421875 -5.71875 C 2.421875 -4.832031 2.609375 -4.050781 2.984375 -3.375 C 3.359375 -2.707031 3.875 -2.179688 4.53125 -1.796875 C 5.195312 -1.410156 5.953125 -1.21875 6.796875 -1.21875 C 7.566406 -1.21875 8.25 -1.367188 8.84375 -1.671875 C 9.445312 -1.984375 9.9375 -2.410156 10.3125 -2.953125 C 10.695312 -3.492188 10.9375 -4.125 11.03125 -4.84375 L 6.375 -4.84375 L 6.375 -6.203125 L 12.578125 -6.203125 C 12.609375 -4.953125 12.378906 -3.84375 11.890625 -2.875 C 11.398438 -1.914062 10.71875 -1.160156 9.84375 -0.609375 C 8.96875 -0.0546875 7.941406 0.21875 6.765625 0.21875 Z M 6.765625 0.21875 "/></g></g></g><g fill="#152039" fill-opacity="1"><g transform="translate(116.334304, 16.874251)"><g><path d="M 1.671875 0 L 1.671875 -11.4375 L 8.609375 -11.4375 L 8.609375 -10.09375 L 3.109375 -10.09375 L 3.109375 -6.484375 L 8.203125 -6.484375 L 8.203125 -5.171875 L 3.109375 -5.171875 L 3.109375 -1.34375 L 8.796875 -1.34375 L 8.796875 0 Z M 1.671875 0 "/></g></g></g></g></g></svg>