<svg xmlns="http://www.w3.org/2000/svg" xmlns:xlink="http://www.w3.org/1999/xlink" width="500" zoomAndPan="magnify" viewBox="0 0 375 374.999991" height="500" preserveAspectRatio="xMidYMid meet" version="1.0"><defs><clipPath id="4c75377b55"><path d="M 141.9375 101.101562 L 232.6875 101.101562 L 232.6875 206.101562 L 141.9375 206.101562 Z M 141.9375 101.101562 " clip-rule="nonzero"/></clipPath></defs><g clip-path="url(#4c75377b55)"><path fill="#ddec00" d="M 141.949219 127.398438 L 164.722656 114.25 L 187.492188 101.101562 L 233.039062 127.398438 L 233.039062 179.984375 L 210.265625 193.136719 L 187.492188 206.28125 L 164.722656 193.136719 L 141.949219 179.984375 L 141.949219 153.691406 M 224.242188 174.910156 L 205.871094 185.519531 L 187.496094 196.125 L 175.226562 189.042969 L 211.945312 167.84375 L 211.890625 157.566406 L 203.03125 162.683594 L 201.632812 163.488281 L 172.160156 180.503906 L 172.085938 167.742188 L 202.960938 149.917969 L 202.953125 149.917969 L 211.816406 144.800781 L 211.707031 125.242188 L 224.246094 132.476562 L 224.242188 153.691406 Z M 163.277344 182.140625 L 150.746094 174.910156 L 150.746094 132.476562 L 169.117188 121.867188 L 187.492188 111.257812 L 199.761719 118.339844 L 163.046875 139.539062 L 163.101562 149.816406 C 175.839844 142.460938 188.875 134.9375 202.828125 126.878906 L 202.898438 139.644531 L 177.148438 154.511719 L 172.03125 157.464844 L 163.171875 162.582031 Z M 163.277344 182.140625 " fill-opacity="1" fill-rule="evenodd"/></g></svg>